<?xml version="1.0" encoding="utf-8"?>
<svg xmlns="http://www.w3.org/2000/svg"
	xmlns:xlink="http://www.w3.org/1999/xlink"
	width="567px" height="112px">
<path fill="rgb(119,119,119)" fill-rule="evenodd" d="M 557.57 107.89C 551.24 109.62 543.17 111.06 533.52 111.06 505.3 111.06 496.37 101.12 496.37 71.75 496.37 46.26 503 31.72 528.34 31.72 538.28 31.72 545.91 33.73 548.36 34.45 548.36 34.45 546.92 25.67 546.92 25.67 546.92 25.67 546.92 6.37 546.92 6.37 546.92 4.65 547.64 3.64 549.36 3.35 549.36 3.35 563.33 0.9 563.33 0.9 563.33 0.9 564.05 0.9 564.05 0.9 565.35 0.9 566.21 1.77 566.21 3.21 566.21 3.21 566.21 96.66 566.21 96.66 566.21 100.84 565.78 105.59 557.57 107.89ZM 546.92 46.69C 545.48 46.4 539.14 45.11 533.09 45.11 520.85 45.11 516.1 47.99 516.1 70.88 516.1 95.08 521.57 97.67 533.67 97.67 539 97.67 543.89 96.66 546.92 95.94 546.92 95.94 546.92 46.69 546.92 46.69ZM 491.41 109.19C 491.41 109.19 472.11 109.19 472.11 109.19 471.39 109.19 470.67 109.19 469.95 108.32 469.95 108.32 447.63 77.94 447.63 77.94 447.63 77.94 442.73 77.94 442.73 77.94 442.73 77.94 442.73 107.03 442.73 107.03 442.73 108.32 442.01 109.19 440.57 109.19 440.57 109.19 425.74 109.19 425.74 109.19 424.45 109.19 423.44 108.32 423.44 107.03 423.44 107.03 423.44 6.37 423.44 6.37 423.44 4.65 424.16 3.64 425.89 3.35 425.89 3.35 440 0.9 440 0.9 441.87 0.61 442.73 1.77 442.73 3.35 442.73 3.35 442.73 64.98 442.73 64.98 442.73 64.98 447.63 64.98 447.63 64.98 447.63 64.98 470.38 34.6 470.38 34.6 470.96 33.73 471.53 33.59 472.25 33.59 472.25 33.59 489.82 34.02 489.82 34.02 490.83 34.02 491.26 34.74 491.26 35.32 491.26 35.46 491.26 35.6 490.97 36.04 490.97 36.04 463.76 70.31 463.76 70.31 463.76 70.31 492.56 107.03 492.56 107.03 492.85 107.46 492.85 107.75 492.85 108.04 492.85 108.61 492.27 109.19 491.41 109.19ZM 389.44 97.24C 396.21 97.24 402.83 95.65 406.58 94.64 408.16 94.21 409.31 94.93 409.6 96.23 409.6 96.23 411.04 103.28 411.04 103.28 411.18 104 411.18 104.44 411.18 104.72 411.18 105.88 410.46 106.45 409.6 106.88 406 108.76 395.49 110.63 385.41 110.63 357.33 110.63 349.7 97.67 349.7 71.17 349.7 44.82 357.33 31.72 385.41 31.72 395.49 31.72 406 34.16 409.6 35.46 410.61 35.89 411.47 36.61 411.04 38.63 411.04 38.63 409.6 46.26 409.6 46.26 409.31 47.84 408.02 48.28 406.58 47.84 403.26 46.98 396.5 45.25 389.44 45.25 373.89 45.25 369.28 51.88 369.28 71.17 369.28 90.47 373.89 97.24 389.44 97.24ZM 323.24 109.04C 318.2 110.2 311.29 111.06 303.23 111.06 287.68 111.06 268.52 109.48 268.52 86.58 268.52 68 280.19 65.99 291.71 64.12 291.71 64.12 317.34 59.94 317.34 59.94 317.34 59.94 317.34 55.33 317.34 55.33 317.34 51.3 316.91 48.42 313.31 46.84 311 45.83 307.55 45.4 302.36 45.4 292.57 45.4 281.92 48.28 277.6 49.43 275.87 49.86 275.15 49.14 275 48.13 275 48.13 272.99 39.2 272.99 39.2 272.7 37.91 273.71 36.9 274.72 36.61 278.17 35.6 291.42 31.72 306.11 31.72 316.33 31.72 323.24 33.16 327.85 35.75 335.2 39.78 336.64 46.55 336.64 54.32 336.64 54.32 336.64 94.07 336.64 94.07 336.64 104.87 333.04 106.74 323.24 109.04ZM 317.34 72.47C 317.34 72.47 299.48 75.35 299.48 75.35 293.58 76.21 288.11 77.08 288.11 86.44 288.11 97.67 297.18 98.53 304.09 98.53 309.71 98.53 314.32 97.52 317.34 96.52 317.34 96.52 317.34 72.47 317.34 72.47ZM 240.83 110.48C 224.42 110.48 216.21 104.15 216.21 87.88 216.21 87.88 216.21 13.72 216.21 13.72 216.21 11.99 217.07 10.98 218.66 10.69 218.66 10.69 232.77 8.1 232.77 8.1 234.79 7.67 235.51 8.82 235.51 10.41 235.51 10.41 235.51 33.59 235.51 33.59 235.51 33.59 256.1 33.59 256.1 33.59 257.39 33.59 258.26 34.45 258.26 35.75 258.26 35.75 258.26 45.54 258.26 45.54 258.26 46.84 257.39 47.56 256.1 47.56 256.1 47.56 235.51 47.56 235.51 47.56 235.51 47.56 235.51 87.44 235.51 87.44 235.51 93.78 238.1 96.37 245.59 96.37 249.9 96.37 254.08 95.65 256.53 95.08 257.82 94.79 258.4 95.51 258.69 96.66 258.69 96.66 260.42 104.58 260.42 104.58 260.85 106.02 260.56 107.03 258.83 107.75 256.38 108.61 250.05 110.48 240.83 110.48ZM 180.08 63.4C 191.46 65.27 203.7 67.86 203.7 86.58 203.7 105.44 189.73 110.92 172.45 110.92 159.92 110.92 148.54 107.6 146.1 106.6 145.38 106.31 144.22 105.73 144.66 103.86 144.66 103.86 146.24 95.65 146.24 95.65 146.53 94.36 147.54 93.78 148.69 94.07 150.42 94.5 160.78 97.67 170.58 97.67 178.5 97.67 184.54 95.22 184.54 88.31 184.54 80.53 179.94 79.81 172.59 78.66 172.59 78.66 169.14 78.08 169.14 78.08 160.21 76.64 145.52 74.2 145.52 55.19 145.52 34.6 163.52 31.72 176.19 31.72 187.86 31.72 197.07 34.16 199.52 34.88 200.82 35.32 201.25 35.89 201.25 36.76 201.25 37.04 201.25 37.19 201.1 37.91 201.1 37.91 199.66 45.97 199.66 45.97 199.52 46.98 198.66 47.41 197.36 47.27 195.49 46.98 186.56 44.96 178.78 44.96 171.87 44.96 164.53 46.55 164.53 53.75 164.53 61.81 172.3 62.1 180.08 63.4Z"/>
<rect x="0.00" y="39.00" width="16.00" height="68.00" fill="rgb(119,119,119)" rx="2.00"/>
<rect x="32.00" y="39.00" width="16.00" height="68.00" fill="rgb(119,119,119)" rx="2.00"/>
<rect x="64.00" y="39.00" width="16.00" height="68.00" fill="rgb(119,119,119)" rx="2.00"/>
<rect x="96.00" y="39.00" width="16.00" height="68.00" fill="rgb(119,119,119)" rx="2.00"/>
</svg>